<?xml version="1.0" encoding="UTF-8" standalone="no"?>
<!DOCTYPE svg PUBLIC "-//W3C//DTD SVG 1.1//EN" "http://www.w3.org/Graphics/SVG/1.1/DTD/svg11.dtd">
<svg width="100%" height="100%" viewBox="0 0 221 158" version="1.1" xmlns="http://www.w3.org/2000/svg" xmlns:xlink="http://www.w3.org/1999/xlink" xml:space="preserve" xmlns:serif="http://www.serif.com/" style="fill-rule:evenodd;clip-rule:evenodd;stroke-linejoin:round;stroke-miterlimit:2;">
    <g transform="matrix(1,0,0,1,-2.07806,-33.7657)">
        <g id="path222" transform="matrix(1.33333,0,0,-1.33333,0,1333.33)">
            <path d="M159.253,952.279L165.463,948.299C166.985,947.321 167.625,945.588 166.88,944.429C166.139,943.274 164.3,943.133 162.774,944.108L156.566,948.092L150.746,939.021L156.951,935.038C158.479,934.057 159.115,932.327 158.374,931.173C157.627,930.012 155.792,929.87 154.268,930.847L148.061,934.835L145.075,930.176C131.914,938.618 125.009,951.338 129.66,958.591C134.306,965.837 148.747,964.863 161.912,956.417L159.253,952.279Z" style="fill:rgb(43,57,144);fill-rule:nonzero;"/>
        </g>
        <g id="path246" transform="matrix(1.33333,0,0,-1.33333,0,1333.33)">
            <path d="M42.844,947.559C35.762,944.314 28.667,940.211 21.373,935.106L15.575,931.048L1.559,857.245L20.855,857.245L27.689,893.692L59.044,893.692L62.26,909.906L30.77,909.906L34.925,931.077L68.424,931.077L71.64,947.559L42.844,947.559Z" style="fill:url(#_Linear1);fill-rule:nonzero;"/>
        </g>
        <g id="path266" transform="matrix(1.33333,0,0,-1.33333,0,1333.33)">
            <path d="M77.848,946.219L61.099,858.316C65.655,857.512 75.034,856.574 85.888,856.574C105.452,856.574 118.716,860.191 129.17,868.634C140.292,877.613 147.66,892.62 147.66,910.173C147.66,915.013 147.059,919.249 145.953,922.982L142.062,925.476C133.415,931.024 127.303,938.008 124.44,944.863C118.331,947.094 111.139,948.228 102.907,948.228C94.061,948.228 85.62,947.559 77.848,946.219M83.344,872.653L94.732,932.15C96.742,932.552 99.555,932.818 102.907,932.818C118.851,932.818 126.758,924.378 126.758,910.04C126.758,899.185 123.542,889.673 117.378,882.704C111.481,875.87 102.237,872.251 91.785,872.251C88.435,872.251 85.62,872.386 83.344,872.653" style="fill:url(#_Linear2);fill-rule:nonzero;"/>
        </g>
        <g id="path226" transform="matrix(1.33333,0,0,-1.33333,0,1333.33)">
            <path d="M125.529,961.24C126.243,962.354 127.112,963.341 128.108,964.208C127.301,964.647 126.506,965.104 125.685,965.519C113.716,971.54 100.26,974.695 86.805,974.676C73.348,974.678 59.897,971.526 47.929,965.506C35.983,959.485 25.474,950.627 18.172,939.681C28.832,947.141 39.826,953.067 51.375,956.976C62.89,960.918 74.843,962.901 86.805,962.901C98.763,962.886 110.714,960.906 122.226,956.963C122.696,956.804 123.161,956.618 123.628,956.453C123.976,958.156 124.586,959.771 125.529,961.24" style="fill:rgb(43,57,144);fill-rule:nonzero;"/>
        </g>
    </g>
    <defs>
        <linearGradient id="_Linear1" x1="0" y1="0" x2="1" y2="0" gradientUnits="userSpaceOnUse" gradientTransform="matrix(1.04876e-14,-171.276,171.276,1.04876e-14,36.5995,974.615)"><stop offset="0" style="stop-color:rgb(43,57,144);stop-opacity:1"/><stop offset="1" style="stop-color:rgb(43,0,97);stop-opacity:1"/></linearGradient>
        <linearGradient id="_Linear2" x1="0" y1="0" x2="1" y2="0" gradientUnits="userSpaceOnUse" gradientTransform="matrix(6.77001e-15,-110.563,110.563,6.77001e-15,104.379,940.984)"><stop offset="0" style="stop-color:rgb(39,170,225);stop-opacity:1"/><stop offset="1" style="stop-color:rgb(0,122,255);stop-opacity:1"/></linearGradient>
    </defs>
</svg>
